<svg id="Слой_1" data-name="Слой 1" xmlns="http://www.w3.org/2000/svg" viewBox="0 0 137 137"><defs><style>.cls-1{fill:#7ecce6;}.cls-2{fill:#010101;}</style></defs><circle class="cls-1" cx="68.5" cy="68.5" r="68"/><g id="Layer_1"><path class="cls-2" d="M36.68,37.15H47.11A16.34,16.34,0,0,1,61.71,28h38.61a2,2,0,0,1,2,2V97.82a2,2,0,0,1-2,2H91.57v7.09a2,2,0,0,1-2,2H36.68a2,2,0,0,1-2-2V39.18A2,2,0,0,1,36.68,37.15Zm15.13,0H75.29A16.33,16.33,0,0,1,91.57,53.44V95.8h6.72V32.09H61.71A12.24,12.24,0,0,0,51.81,37.15ZM44.89,82.51a2,2,0,0,1,0-4.05H81.34a2,2,0,0,1,0,4.05Zm0,13a2,2,0,0,1,0-4H81.34a2,2,0,0,1,0,4Zm0-6.51a2,2,0,0,1,0-4H81.34a2,2,0,0,1,0,4ZM38.71,71H87.53V53.44A12.29,12.29,0,0,0,75.29,41.2H38.71Zm48.82,4H38.71v29.83H87.53ZM63.12,45a8.79,8.79,0,0,1,8.14,12.11,11.4,11.4,0,0,1,3.26,8,2,2,0,0,1-4,0,7.25,7.25,0,0,0-1.62-4.62,8.79,8.79,0,0,1-11.47,0,7.25,7.25,0,0,0-1.62,4.62,2,2,0,0,1-4,0,11.4,11.4,0,0,1,3.26-8A8.79,8.79,0,0,1,63.12,45Zm0,4a4.75,4.75,0,1,0,4.74,4.75A4.75,4.75,0,0,0,63.12,49Z"/></g></svg>