<?xml version="1.0" encoding="utf-8"?>
<!-- Generator: Adobe Illustrator 17.1.0, SVG Export Plug-In . SVG Version: 6.00 Build 0)  -->
<!DOCTYPE svg PUBLIC "-//W3C//DTD SVG 1.1//EN" "http://www.w3.org/Graphics/SVG/1.1/DTD/svg11.dtd">
<svg version="1.1" id="Слой_1" xmlns="http://www.w3.org/2000/svg" xmlns:xlink="http://www.w3.org/1999/xlink" x="0px" y="0px"
	 viewBox="0 0 137 137" enable-background="new 0 0 137 137" xml:space="preserve">
<path fill="#D20A11" d="M137,68.5c0,37.9-30.7,68.5-68.5,68.5S0,106.4,0,68.5C0,30.7,30.7,0,68.5,0S137,30.7,137,68.5z"/>
<g>
	<path fill="#FFFFFF" d="M43.8,43.3v19.5c3-3.5,6.5-5.3,10.6-5.3c2.1,0,4,0.4,5.7,1.2s3,1.8,3.8,3.1c0.9,1.3,1.5,2.6,1.8,4.1
		s0.5,3.9,0.5,7v20.8H57V75c0-3.7-0.2-6.1-0.5-7.1c-0.4-1-1-1.8-1.8-2.4c-0.9-0.6-2-0.9-3.3-0.9c-1.5,0-2.9,0.4-4.1,1.1
		c-1.2,0.8-2.1,1.9-2.6,3.4c-0.6,1.5-0.8,3.8-0.8,6.8v17.8h-9.2V43.3H43.8z"/>
	<path fill="#FFFFFF" d="M80,43.3v19.5c3-3.5,6.5-5.3,10.6-5.3c2.1,0,4,0.4,5.7,1.2s3,1.8,3.8,3.1c0.9,1.3,1.5,2.6,1.8,4.1
		s0.5,3.9,0.5,7v20.8h-9.2V75c0-3.7-0.2-6.1-0.5-7.1c-0.4-1-1-1.8-1.8-2.4c-0.9-0.6-2-0.9-3.3-0.9c-1.5,0-2.9,0.4-4.1,1.1
		c-1.2,0.8-2.1,1.9-2.6,3.4C80.3,70.7,80,73,80,75.9v17.8h-9.2V43.3H80z"/>
</g>
</svg>
